<svg width="1440" height="900" viewBox="0 0 1440 900" fill="none" xmlns="http://www.w3.org/2000/svg">
  <rect width="1440" height="900" rx="28" fill="#0F1115"/>
  <rect width="280" height="900" fill="#14171D"/>
  <circle cx="48" cy="42" r="10" fill="#7A7F88"/>
  <circle cx="78" cy="42" r="10" fill="#7A7F88"/>
  <circle cx="108" cy="42" r="10" fill="#7A7F88"/>
  <circle cx="48" cy="120" r="22" fill="#FF6A1A"/>
  <path d="M40 119L59 109L51 133L47 123L40 119Z" fill="#0F1115"/>
  <text x="84" y="130" font-family="Inter, -apple-system, BlinkMacSystemFont, Helvetica, Arial, sans-serif" font-size="22" font-weight="800" fill="#F9FAFB">FindMyFlipper</text>
  <text x="82" y="219" font-family="Inter, -apple-system, BlinkMacSystemFont, Helvetica, Arial, sans-serif" font-size="18" font-weight="600" fill="#A1A1AA">Map</text>
  <rect x="28" y="254" width="224" height="48" rx="10" fill="#261B15"/>
  <text x="82" y="286" font-family="Inter, -apple-system, BlinkMacSystemFont, Helvetica, Arial, sans-serif" font-size="18" font-weight="800" fill="#F9FAFB">Dashboard</text>
  <text x="82" y="352" font-family="Inter, -apple-system, BlinkMacSystemFont, Helvetica, Arial, sans-serif" font-size="18" font-weight="600" fill="#A1A1AA">Reports</text>
  <text x="82" y="418" font-family="Inter, -apple-system, BlinkMacSystemFont, Helvetica, Arial, sans-serif" font-size="18" font-weight="600" fill="#A1A1AA">Flipper</text>
  <text x="340" y="130" font-family="Inter, -apple-system, BlinkMacSystemFont, Helvetica, Arial, sans-serif" font-size="30" font-weight="900" fill="#F9FAFB">Demo Flipper</text>
  <text x="340" y="160" font-family="Inter, -apple-system, BlinkMacSystemFont, Helvetica, Arial, sans-serif" font-size="17" font-weight="600" fill="#A1A1AA">Dashboard</text>
  <g>
    <rect x="340" y="212" width="210" height="130" rx="14" fill="#1B1F27" stroke="#2A2F3A"/>
    <text x="370" y="273" font-family="Inter, -apple-system, BlinkMacSystemFont, Helvetica, Arial, sans-serif" font-size="27" font-weight="900" fill="#F9FAFB">2m ago</text>
    <text x="370" y="309" font-family="Inter, -apple-system, BlinkMacSystemFont, Helvetica, Arial, sans-serif" font-size="15" font-weight="700" fill="#A1A1AA">Last Seen</text>
    <rect x="604" y="212" width="210" height="130" rx="14" fill="#1B1F27" stroke="#2A2F3A"/>
    <text x="634" y="273" font-family="Inter, -apple-system, BlinkMacSystemFont, Helvetica, Arial, sans-serif" font-size="27" font-weight="900" fill="#22C55E">80%</text>
    <text x="634" y="309" font-family="Inter, -apple-system, BlinkMacSystemFont, Helvetica, Arial, sans-serif" font-size="15" font-weight="700" fill="#A1A1AA">Battery</text>
    <rect x="868" y="212" width="210" height="130" rx="14" fill="#1B1F27" stroke="#2A2F3A"/>
    <text x="898" y="273" font-family="Inter, -apple-system, BlinkMacSystemFont, Helvetica, Arial, sans-serif" font-size="27" font-weight="900" fill="#F9FAFB">Connected</text>
    <text x="898" y="309" font-family="Inter, -apple-system, BlinkMacSystemFont, Helvetica, Arial, sans-serif" font-size="15" font-weight="700" fill="#A1A1AA">Bluetooth</text>
    <rect x="1132" y="212" width="210" height="130" rx="14" fill="#1B1F27" stroke="#2A2F3A"/>
    <text x="1162" y="273" font-family="Inter, -apple-system, BlinkMacSystemFont, Helvetica, Arial, sans-serif" font-size="27" font-weight="900" fill="#F9FAFB">3</text>
    <text x="1162" y="309" font-family="Inter, -apple-system, BlinkMacSystemFont, Helvetica, Arial, sans-serif" font-size="15" font-weight="700" fill="#A1A1AA">Reports</text>
  </g>
  <rect x="340" y="382" width="1002" height="286" rx="16" fill="#1B1F27" stroke="#2A2F3A"/>
  <text x="382" y="430" font-family="Inter, -apple-system, BlinkMacSystemFont, Helvetica, Arial, sans-serif" font-size="22" font-weight="900" fill="#F9FAFB">Last Known Location</text>
  <rect x="382" y="458" width="918" height="154" rx="10" fill="#455B76"/>
  <rect x="382" y="458" width="918" height="154" rx="10" fill="url(#grid)" opacity=".36"/>
  <circle cx="840" cy="535" r="45" fill="#FF6A1A" opacity=".25"/>
  <circle cx="840" cy="535" r="27" fill="#FF6A1A"/>
  <path d="M826 535L840 528L854 535L848 547H831L826 535Z" fill="#FFFFFF"/>
  <text x="382" y="646" font-family="Inter, -apple-system, BlinkMacSystemFont, Helvetica, Arial, sans-serif" font-size="15" font-weight="700" fill="#FF6A1A">37.33182, -122.03118</text>
  <text x="1152" y="646" font-family="Inter, -apple-system, BlinkMacSystemFont, Helvetica, Arial, sans-serif" font-size="15" font-weight="700" fill="#A1A1AA">92% confidence</text>
  <rect x="340" y="704" width="1002" height="140" rx="16" fill="#1B1F27" stroke="#2A2F3A"/>
  <text x="382" y="748" font-family="Inter, -apple-system, BlinkMacSystemFont, Helvetica, Arial, sans-serif" font-size="22" font-weight="900" fill="#F9FAFB">Quick Actions</text>
  <rect x="382" y="778" width="434" height="44" rx="10" fill="#0F1115" stroke="#2A2F3A"/>
  <text x="432" y="807" font-family="Inter, -apple-system, BlinkMacSystemFont, Helvetica, Arial, sans-serif" font-size="15" font-weight="800" fill="#F9FAFB">Play Alert</text>
  <rect x="846" y="778" width="434" height="44" rx="10" fill="#0F1115" stroke="#2A2F3A"/>
  <text x="896" y="807" font-family="Inter, -apple-system, BlinkMacSystemFont, Helvetica, Arial, sans-serif" font-size="15" font-weight="800" fill="#F9FAFB">Refresh Reports</text>
  <defs>
    <pattern id="grid" width="90" height="90" patternUnits="userSpaceOnUse">
      <path d="M90 0H0V90" stroke="#E9EEF7" stroke-width="10"/>
    </pattern>
  </defs>
</svg>
